<svg width="77" height="114" viewBox="0 0 77 114" fill="none" xmlns="http://www.w3.org/2000/svg">
    <ellipse cx="37.5" cy="107.5" rx="27.5" ry="6.5" fill="#D9D9D9" fill-opacity="0.34"/>
    <path d="M38.0854 0C12.5214 0 -33.0291 37 38.0854 95V0Z" fill="#F4F4FA"/>
    <path d="M38 0C63.564 0 109.115 37 38 95V0Z" fill="#DFDFE3"/>
    <circle cx="38" cy="39" r="27" fill="#5B4DFA"/>
    <path d="M29.04 24.32H40.56C42.592 24.32 44.424 24.68 46.056 25.4C47.688 26.104 48.984 27.184 49.944 28.64C50.92 30.08 51.408 31.888 51.408 34.064C51.408 36.224 50.92 38.064 49.944 39.584C48.984 41.088 47.688 42.24 46.056 43.04C44.424 43.824 42.592 44.216 40.56 44.216H36.216V56H29.04V24.32ZM36.216 38.552H38.568C39.544 38.552 40.416 38.408 41.184 38.12C41.968 37.832 42.592 37.376 43.056 36.752C43.52 36.112 43.752 35.272 43.752 34.232C43.752 33.176 43.52 32.344 43.056 31.736C42.592 31.112 41.968 30.664 41.184 30.392C40.416 30.12 39.544 29.984 38.568 29.984H36.216V38.552Z" fill="#F4F4FA"/>
</svg>
